<mxfile host="app.diagrams.net" agent="Mozilla/5.0 (Windows NT 10.0; Win64; x64) AppleWebKit/537.36 (KHTML, like Gecko) Chrome/131.0.0.0 Safari/537.36 Edg/131.0.0.0" version="25.0.3">
  <diagram name="Page-1" id="UYU0pVVrhXmgeACe_DIZ">
    <mxGraphModel dx="869" dy="450" grid="1" gridSize="10" guides="1" tooltips="1" connect="1" arrows="1" fold="1" page="1" pageScale="1" pageWidth="850" pageHeight="1100" math="0" shadow="0">
      <root>
        <mxCell id="0" />
        <mxCell id="1" parent="0" />
        <mxCell id="BVEGe99WdlnJOCE__2Kp-1" value="Deep Inquiry Framework" style="rounded=0;whiteSpace=wrap;html=1;" parent="1" vertex="1">
          <mxGeometry x="440" y="30" width="120" height="60" as="geometry" />
        </mxCell>
        <mxCell id="BVEGe99WdlnJOCE__2Kp-5" value="Global Revenue" style="text;html=1;align=center;verticalAlign=middle;resizable=0;points=[];autosize=1;strokeColor=none;fillColor=none;" parent="1" vertex="1">
          <mxGeometry x="110" y="200" width="110" height="30" as="geometry" />
        </mxCell>
        <mxCell id="BVEGe99WdlnJOCE__2Kp-6" value="Host Revenue" style="text;html=1;align=center;verticalAlign=middle;resizable=0;points=[];autosize=1;strokeColor=none;fillColor=none;" parent="1" vertex="1">
          <mxGeometry x="220" y="200" width="100" height="30" as="geometry" />
        </mxCell>
        <mxCell id="BVEGe99WdlnJOCE__2Kp-7" value="Curator Revenue" style="text;html=1;align=center;verticalAlign=middle;resizable=0;points=[];autosize=1;strokeColor=none;fillColor=none;" parent="1" vertex="1">
          <mxGeometry x="215" y="270" width="110" height="30" as="geometry" />
        </mxCell>
        <mxCell id="BVEGe99WdlnJOCE__2Kp-8" value="Developer Revenue" style="text;html=1;align=center;verticalAlign=middle;resizable=0;points=[];autosize=1;strokeColor=none;fillColor=none;" parent="1" vertex="1">
          <mxGeometry x="205" y="240" width="130" height="30" as="geometry" />
        </mxCell>
        <mxCell id="BVEGe99WdlnJOCE__2Kp-9" value="Wiki" style="text;html=1;align=center;verticalAlign=middle;resizable=0;points=[];autosize=1;strokeColor=none;fillColor=none;" parent="1" vertex="1">
          <mxGeometry x="565" y="188" width="50" height="30" as="geometry" />
        </mxCell>
        <mxCell id="BVEGe99WdlnJOCE__2Kp-10" value="Github" style="text;html=1;align=center;verticalAlign=middle;resizable=0;points=[];autosize=1;strokeColor=none;fillColor=none;" parent="1" vertex="1">
          <mxGeometry x="380" y="170" width="60" height="30" as="geometry" />
        </mxCell>
        <mxCell id="BVEGe99WdlnJOCE__2Kp-12" value="Supabase DB" style="text;html=1;align=center;verticalAlign=middle;resizable=0;points=[];autosize=1;strokeColor=none;fillColor=none;" parent="1" vertex="1">
          <mxGeometry x="360" y="210" width="100" height="30" as="geometry" />
        </mxCell>
        <mxCell id="BVEGe99WdlnJOCE__2Kp-13" value="Use Cases" style="text;html=1;align=center;verticalAlign=middle;resizable=0;points=[];autosize=1;strokeColor=none;fillColor=none;" parent="1" vertex="1">
          <mxGeometry x="550" y="158" width="80" height="30" as="geometry" />
        </mxCell>
        <mxCell id="BVEGe99WdlnJOCE__2Kp-14" value="Essays" style="text;html=1;align=center;verticalAlign=middle;resizable=0;points=[];autosize=1;strokeColor=none;fillColor=none;" parent="1" vertex="1">
          <mxGeometry x="560" y="218" width="60" height="30" as="geometry" />
        </mxCell>
        <mxCell id="BVEGe99WdlnJOCE__2Kp-15" value="Revenue Sharing Plan" style="text;html=1;align=center;verticalAlign=middle;resizable=0;points=[];autosize=1;strokeColor=none;fillColor=none;" parent="1" vertex="1">
          <mxGeometry x="155" y="158" width="140" height="30" as="geometry" />
        </mxCell>
        <mxCell id="BVEGe99WdlnJOCE__2Kp-16" value="REVENUE MODE" style="rounded=0;whiteSpace=wrap;html=1;" parent="1" vertex="1">
          <mxGeometry x="160" y="110" width="120" height="30" as="geometry" />
        </mxCell>
        <mxCell id="BVEGe99WdlnJOCE__2Kp-17" value="BUILD MODE" style="rounded=0;whiteSpace=wrap;html=1;" parent="1" vertex="1">
          <mxGeometry x="350" y="110" width="120" height="30" as="geometry" />
        </mxCell>
        <mxCell id="BVEGe99WdlnJOCE__2Kp-19" value="REACH MODE" style="rounded=0;whiteSpace=wrap;html=1;" parent="1" vertex="1">
          <mxGeometry x="530" y="110" width="120" height="30" as="geometry" />
        </mxCell>
        <mxCell id="BVEGe99WdlnJOCE__2Kp-20" value="SUPPORT MODE" style="rounded=0;whiteSpace=wrap;html=1;" parent="1" vertex="1">
          <mxGeometry x="700" y="110" width="120" height="30" as="geometry" />
        </mxCell>
        <mxCell id="BVEGe99WdlnJOCE__2Kp-21" value="The Emergence&amp;nbsp;&lt;div&gt;Book Release&lt;/div&gt;" style="text;html=1;align=center;verticalAlign=middle;resizable=0;points=[];autosize=1;strokeColor=none;fillColor=none;" parent="1" vertex="1">
          <mxGeometry x="540" y="248" width="110" height="40" as="geometry" />
        </mxCell>
        <mxCell id="BVEGe99WdlnJOCE__2Kp-23" value="Gen AI" style="text;html=1;align=center;verticalAlign=middle;resizable=0;points=[];autosize=1;strokeColor=none;fillColor=none;" parent="1" vertex="1">
          <mxGeometry x="380" y="248" width="60" height="30" as="geometry" />
        </mxCell>
        <mxCell id="BVEGe99WdlnJOCE__2Kp-24" value="Accounting" style="text;html=1;align=center;verticalAlign=middle;resizable=0;points=[];autosize=1;strokeColor=none;fillColor=none;" parent="1" vertex="1">
          <mxGeometry x="720" y="168" width="80" height="30" as="geometry" />
        </mxCell>
        <mxCell id="BVEGe99WdlnJOCE__2Kp-25" value="Framework&amp;nbsp;&lt;div&gt;Maintenance&lt;/div&gt;" style="text;html=1;align=center;verticalAlign=middle;resizable=0;points=[];autosize=1;strokeColor=none;fillColor=none;" parent="1" vertex="1">
          <mxGeometry x="720" y="198" width="90" height="40" as="geometry" />
        </mxCell>
      </root>
    </mxGraphModel>
  </diagram>
</mxfile>
